<svg xmlns="http://www.w3.org/2000/svg" id="Layer_1" width="300" height="300" viewBox="0 0 300 300">
  <style>
    .st0{fill:#F8B9C5;} .st1{fill:#D468A8;} .st2{fill:#FFFFFF;} .st3{fill:#00AEEF;} .st4{fill:#D569A8;} .st5{fill:none;stroke:#961A36;stroke-width:40.6975;stroke-linecap:round;stroke-linejoin:round;stroke-miterlimit:10;} .st6{fill:#F7FBFA;stroke:#961A36;stroke-width:14.7991;stroke-linecap:round;stroke-linejoin:round;stroke-miterlimit:10;} .st7{fill:none;stroke:#961A36;stroke-width:18.4989;stroke-linecap:round;stroke-linejoin:round;stroke-miterlimit:10;}
  </style>
  <path d="M219.3 146.5c-25.6 1.3-47.4-18.3-48.7-44s26.7-41 51-49.5c26.2-9.2 42.2-7 43.5 18.5s-20 73.7-45.4 75z" class="st0"/>
  <path d="M169 105.5c1.4 25.6 23.2 45.2 48.8 44 4.7-.3 9.2-2.2 13.5-5 12.7-16.8 21-42 20.2-58.2-1.3-25.6-17.3-27.6-43.6-18.5-11 3.8-23 9-32.6 16.2-4.4 6.2-7 13.4-6.6 21.5z" class="st1"/>
  <path d="M103 101.8c0 25.6-21 46.4-46.5 46.4S17 119.4 9.7 94.8C2 68 4.7 52.2 30.4 52.2s72.5 24 72.5 49.6z" class="st0"/>
  <path d="M59.3 149.8c25.6 0 46.4-20.8 46.4-46.4 0-4.7-1.6-9.3-4.3-13.7-16-13.6-40.7-23.2-57-23.2C19 66.5 16 82.3 24 109c3.3 11.3 8 23.3 14.5 33 6 5 13 7.8 21 7.8z" class="st1"/>
  <circle cx="134" cy="167.1" r="106.9" class="st0"/>
  <circle cx="105.7" cy="125.1" r="24.7" class="st2"/>
  <path d="M109 121.2c1 1 1.5 2.3 1.5 3.7 0 2.5-2.4 5-5.3 5s-5.3-2.5-5.3-5.4c0-2.7 1.5-5 4-5.3h-1c-7 0-12.6 5.4-12.6 12.3 0 6.8 5.5 12.4 12.4 12.4 6.5 0 12-5.4 12-12.3 0-4.6-2.4-8.7-6.2-10.8z" class="st3"/>
  <circle cx="158.7" cy="125.1" r="24.7" class="st2"/>
  <path d="M162 121.2c1 1 1.5 2.3 1.5 3.7 0 2.5-2.4 5-5.3 5-3 0-5.3-2.5-5.3-5.4 0-2.7 1.5-5 4-5.3h-1c-7 0-12.6 5.4-12.6 12.3 0 6.8 5.5 12.4 12.4 12.4s12-5.4 12-12.3c0-4.6-2.4-8.7-6.2-10.8z" class="st3"/>
  <circle cx="134" cy="184" r="46.4" class="st4"/>
  <ellipse cx="119.8" cy="180.7" class="st0" rx="9.9" ry="16.5"/>
  <ellipse cx="146.3" cy="180.7" class="st0" rx="9.9" ry="16.5"/>
  <circle cx="223.3" cy="221" r="44.9" class="st6"/>
  <path d="M223.3 232l64.4-65.5" class="st7"/>
  <path d="M207.3 214l16 18" class="st7"/>
</svg>
