<?xml version="1.0" encoding="utf-8"?>
<!-- Generator: Adobe Illustrator 19.2.1, SVG Export Plug-In . SVG Version: 6.00 Build 0)  -->
<svg version="1.1" id="Layer_1" xmlns="http://www.w3.org/2000/svg" xmlns:xlink="http://www.w3.org/1999/xlink" x="0px" y="0px"
	 width="300px" height="300px" viewBox="0 0 300 300" enable-background="new 0 0 300 300" xml:space="preserve">
<path fill="#F8B9C5" d="M219.3,146.5c-25.6,1.3-47.4-18.3-48.7-43.9s26.7-41.1,50.9-49.6c26.3-9.2,42.3-7.1,43.6,18.5
	S244.8,145.2,219.3,146.5z"/>
<path fill="#D468A8" d="M169.1,105.5c1.3,25.6,23.1,45.2,48.7,43.9c4.7-0.2,9.2-2.1,13.5-5c12.7-16.7,21.1-41.9,20.2-58.1
	c-1.3-25.6-17.3-27.6-43.6-18.5c-11,3.8-22.7,9.1-32.2,16.2C171.3,90.2,168.7,97.4,169.1,105.5z"/>
<path fill="#F8B9C5" d="M102.9,101.8c0,25.6-20.8,46.4-46.4,46.4S16.9,119.4,9.7,94.8C1.9,68,4.8,52.2,30.4,52.2
	S102.9,76.2,102.9,101.8z"/>
<path fill="#D468A8" d="M59.3,149.8c25.6,0,46.4-20.8,46.4-46.4c0-4.7-1.6-9.3-4.3-13.7c-16-13.6-40.7-23.2-56.9-23.2
	c-25.6,0-28.5,15.8-20.7,42.6c3.3,11.2,7.9,23.2,14.5,33C44.2,146.9,51.2,149.8,59.3,149.8z"/>
<circle fill="#F8B9C5" cx="134" cy="167.1" r="106.9"/>
<circle fill="#FFFFFF" cx="105.7" cy="125.1" r="24.7"/>
<path fill="#00AEEF" d="M109,121.2c1,1,1.5,2.3,1.5,3.7c0,2.9-2.4,5.3-5.3,5.3s-5.3-2.4-5.3-5.3c0-2.6,1.9-4.8,4.4-5.2
	c-0.5-0.1-0.9-0.1-1.4-0.1c-6.8,0-12.4,5.5-12.4,12.4c0,6.8,5.5,12.4,12.4,12.4c6.8,0,12.4-5.5,12.4-12.4
	C115.3,127.4,112.8,123.3,109,121.2z"/>
<circle fill="#FFFFFF" cx="158.7" cy="125.1" r="24.7"/>
<path fill="#00AEEF" d="M162,121.2c1,1,1.5,2.3,1.5,3.7c0,2.9-2.4,5.3-5.3,5.3c-2.9,0-5.3-2.4-5.3-5.3c0-2.6,1.9-4.8,4.4-5.2
	c-0.5-0.1-0.9-0.1-1.4-0.1c-6.8,0-12.4,5.5-12.4,12.4c0,6.8,5.5,12.4,12.4,12.4s12.4-5.5,12.4-12.4
	C168.3,127.4,165.8,123.3,162,121.2z"/>
<circle fill="#D569A8" cx="134" cy="184" r="46.4"/>
<ellipse fill="#F8B9C5" cx="119.8" cy="180.7" rx="9.9" ry="16.5"/>
<ellipse fill="#F8B9C5" cx="146.3" cy="180.7" rx="9.9" ry="16.5"/>
<path fill="none" stroke="#961A36" stroke-width="40.6975" stroke-linecap="round" stroke-linejoin="round" stroke-miterlimit="10" d="
	M42,232.5"/>
<circle fill="#F7FBFA" stroke="#961A36" stroke-width="14.7991" stroke-linecap="round" stroke-linejoin="round" stroke-miterlimit="10" cx="223.3" cy="221" r="44.9"/>
<line fill="none" stroke="#961A36" stroke-width="18.4989" stroke-linecap="round" stroke-linejoin="round" stroke-miterlimit="10" x1="223.3" y1="231.9" x2="287.7" y2="166.5"/>
<line fill="none" stroke="#961A36" stroke-width="18.4989" stroke-linecap="round" stroke-linejoin="round" stroke-miterlimit="10" x1="207.3" y1="214" x2="223.3" y2="231.9"/>
<g>
</g>
<g>
</g>
<g>
</g>
<g>
</g>
<g>
</g>
<g>
</g>
</svg>
